_________________________  Visit us at _________________________
  
http://p2pdl.com  ____________________________  http://p2pdl.com


Summer Of Sam 1999 BRRip 720p x264 AAC - PRiSTiNE [P2PDL]


Genre: Crime | Drama | Romance | Thriller
Plot: Spike Lee's take on the "Son of Sam" murders in New York City 
during the summer of 1977 centering on the residents of an 
Italian-American South Bronx neighborhood who live in fear 
and distrust of one another.
Director: Spike Lee
Stars: John Leguizamo, Adrien Brody, Mira Sorvino
Rated: Rated R for strong graphic violence and sexuality, pervasive strong language and drug use

Info: 
http://www.imdb.com/title/tt0162677/

General
Complete name                  : Summer Of Sam 1999 BRRip 720p x264 AAC - PRiSTiNE.mp4
Format                         : MPEG-4
Format profile                 : Base Media
File size                      : 1.07 GiB
Duration                       : 2h 21mn
Overall bit rate mode          : Variable
Overall bit rate               : 1 083 Kbps

Video
Format                         : AVC
Format/Info                    : Advanced Video Codec
Format profile                 : High 10@L4.1
Bit rate                       : 1 000 Kbps
Width                          : 1 280 pixels
Height                         : 688 pixels
Display aspect ratio           : 1.85:1
Frame rate mode                : Constant
Frame rate                     : 23.976 fps
Color space                    : YUV
Chroma subsampling             : 4:2:0
Bit depth                      : 10 bits
Scan type                      : Progressive
Stream size                    : 1 015 MiB (92%)
Writing library                : x264 core 130 r2273 b3065e6

Audio
Format                         : AAC
Format/Info                    : Advanced Audio Codec
Bit rate mode                  : Variable
Bit rate                       : 79.9 Kbps
Channel(s)                     : 2 channels
Channel positions              : Front: L R
Sampling rate                  : 48.0 KHz / 24.0 KHz
Stream size                    : 81.2 MiB (7%)
Language                       : English

Subtitle                       : Yes (English)

Source                         : 720p.BluRay.X264-AMIABLE (Thanks)

Screens:
 
http://www.ultraimg.com/images/1SA7c.jpg 
http://www.ultraimg.com/images/QywSA.jpg 
http://www.ultraimg.com/images/jKSfl.jpg 
http://www.ultraimg.com/images/vxYiZ.jpg


----------------------------------------------------------------------------------------------------


Encoded using revolutionary 10bit encoding, which enables us to provide you more crispier 
and sharper images at small sizes, just make sure you follow our instructions without a fault.
Recommend to you to use latest version of VLC player. Install K-Lite Codec Pack or shark007 codecs
in case of any kind of problem in playback (For non-VLC Media Player users). Alternatively, install
Core AVC codecs, the fastest decoder that there is coupled with Community Center Codec Pack and play
on Windows Media Player Classic. Check sample to be sure.
Enjoy!

Encoder Notes:Looking For Early Access To Anything You Can Provide DVDScr, R5, DVDR, BluRay, Direct
Audio, Music Releases and Seedboxes. We require dedicated servers, so as to do more 
and fast releases of movies.
If You Got anything to offer please contact us at "prg@hush.com".

Face book Fan Page:   
http://www.fb.me/p2pdl